<?xml version="1.0" encoding="utf-8"?>
<!-- Generator: Adobe Illustrator 24.2.1, SVG Export Plug-In . SVG Version: 6.00 Build 0)  -->
<svg version="1.1" id="Layer_1" xmlns="http://www.w3.org/2000/svg" xmlns:xlink="http://www.w3.org/1999/xlink" x="0px" y="0px"
	 viewBox="0 0 256 256" style="enable-background:new 0 0 256 256;" xml:space="preserve">
<style type="text/css">
	.st0{fill:#77B255;}
	.st1{fill:#F54545;}
	.st2{fill:#5D54A4;}
</style>
<g>
	<path class="st0" d="M188.6,13.3c-0.9,0.3-1.9,0.5-2.8,0.8c-24.7,7-44.4,22.8-57.1,42.9c-0.4-1-0.8-2-1-3.1
		c-5.9-20.4,6-41.6,26.4-47.5C166.4,2.8,179.1,5.9,188.6,13.3z"/>
	<path class="st1" d="M148.7,43.6h-41.6c-24.1,0-46.5,12.9-58.5,33.8l-20.9,36.1c-12,21-12,46.8,0,67.8l20.9,36
		c12,21,34.5,33.8,58.7,33.8h41.6c24.2,0,46.5-12.9,58.7-33.8l20.7-36c12-21,12-46.8,0-67.8l-20.9-36.1
		C195.4,56.6,173,43.6,148.7,43.6z"/>
	<path class="st0" d="M193.3,160.3c-9.9-8.7-31.4-15.4-47.8-18.1c16.4-2.7,38-9.4,47.8-18.1c9.5-8.3,14-13.8,10.1-22.2
		c-2.7-5.8-13.4-6.3-19.6-11.7c-6.1-5.4-6.8-15-13.3-17.3c-9.5-3.5-15.6,0.5-25.1,8.8c-9.9,8.7-17.4,27.7-20.5,42.1
		c-3.1-14.5-10.6-33.6-20.5-42.3C95,73.5,88.7,69.5,79.3,73c-6.5,2.3-7,11.8-13.3,17.3c-6.1,5.4-16.9,6-19.6,11.8
		c-3.8,8.3,0.6,13.8,10.1,22.2c9.9,8.7,31.4,15.4,47.9,18.1c-16.4,2.7-38,9.4-47.9,18.1c-9.5,8.3-14,13.8-10,22.2
		c2.7,5.8,13.4,6.3,19.6,11.7c6.1,5.4,6.8,15,13.3,17.3c9.5,3.5,15.6-0.5,25.1-8.8c7.8-6.8,14.1-20.1,17.9-32.5
		c-1.3,21.3,2.4,49.8,18.1,67c6.3,6.9,11.3,2.6,13.3,0.9c1.9-1.7,7.6-6.7,0.9-13.3c-18.3-18.2-24.7-37.1-26.5-52.4
		c3.8,11.8,9.9,23.8,17.2,30.4c9.5,8.3,15.8,12.3,25.1,8.8c6.5-2.3,7-11.8,13.3-17.3c6.1-5.4,16.9-6,19.6-11.8
		C207.2,174.2,202.7,168.6,193.3,160.3z"/>
	<polygon class="st2" points="122,117.8 122,145.7 150.9,145.7 150.9,160.6 122,160.6 122,187.6 150.9,187.6 150.9,202.5 
		106.2,202.5 106.2,103.8 150.9,103.8 150.9,117.8 	"/>
</g>
</svg>
